Coordinates
version=1
nRows=10
nColumns=40
inDegrees=yes

Units are S.I. units (second, meters, Newtons, ...)
If the header above contains a line with 'inDegrees', this indicates whether rotational values are in degrees (yes) or radians (no).

endheader
time	pelvis_tilt	pelvis_list	pelvis_rotation	pelvis_tx	pelvis_ty	pelvis_tz	hip_flexion_r	hip_adduction_r	hip_rotation_r	knee_angle_r	knee_angle_r_beta	ankle_angle_r	subtalar_angle_r	mtp_angle_r	hip_flexion_l	hip_adduction_l	hip_rotation_l	knee_angle_l	knee_angle_l_beta	ankle_angle_l	subtalar_angle_l	mtp_angle_l	lumbar_extension	lumbar_bending	lumbar_rotation	arm_flex_r	arm_add_r	arm_rot_r	elbow_flex_r	pro_sup_r	wrist_flex_r	wrist_dev_r	arm_flex_l	arm_add_l	arm_rot_l	elbow_flex_l	pro_sup_l	wrist_flex_l	wrist_dev_l
      8.94000000	      3.98141520	      2.86263264	     -7.16579548	     -0.01543778	      0.98131005	     -0.01584453	      6.28740369	     -7.97677873	      2.47814258	     58.91504183	      1.02826146	    -13.91147185	      0.00000000	     -7.49263370	      7.53715818	      3.09053923	    -15.04466510	     13.02951219	      0.22740789	     -2.63210105	     -7.49640359	     -7.49263370	     -8.93557280	     -5.25487784	      2.95048645	    -11.27786372	      6.27111686	    -34.34757221	     48.92610837	     64.72388378	      0.00000000	      0.00000000	     -6.85555817	      2.77231520	    -18.86659147	     38.41398141	     65.49323365	      0.00000000	      0.00000000
      8.95000000	      3.91205195	      2.85738042	     -6.99916336	     -0.00788740	      0.98189145	     -0.01689007	      7.68968439	     -8.02703218	      2.41072785	     59.96875577	      1.04665224	    -13.00313174	      0.00000000	     -7.49284620	      7.06767454	      3.24948016	    -14.82194703	     12.94523994	      0.22593706	     -2.41200038	     -7.41408133	     -7.49284620	     -8.93243861	     -5.20046554	      2.62821117	    -11.10561121	      6.32252303	    -34.24225778	     49.12149990	     64.70828856	      0.00000000	      0.00000000	     -6.31965737	      2.54192046	    -18.78692369	     38.79150439	     65.51432891	      0.00000000	      0.00000000
      8.96000000	      3.97119238	      2.62397396	     -6.84028534	     -0.00009895	      0.98276127	     -0.01783644	      8.77084360	     -7.87059688	      2.17468186	     60.49568678	      1.05584892	    -12.82236563	      0.00000000	     -7.49289267	      6.33369770	      3.16445454	    -14.77840227	     12.75757773	      0.22266174	     -2.35183599	     -7.38727114	     -7.49289267	     -9.03813601	     -4.88626310	      2.45428356	    -11.16889746	      6.35939725	    -34.23348829	     49.15333501	     64.69406563	      0.00000000	      0.00000000	     -6.12050513	      2.48012250	    -18.77006997	     38.94670932	     65.50898136	      0.00000000	      0.00000000
      8.97000000	      3.86758931	      2.74070726	     -6.67872435	      0.00737121	      0.98321451	     -0.01880001	     10.15244049	     -8.04789187	      2.05083211	     60.95961058	      1.06394592	     -9.06213103	      0.00000000	     -7.49339539	      5.80835263	      3.47963015	    -14.43908215	     12.42402233	      0.21684010	     -1.39452797	     -7.27336610	     -7.49339539	     -9.00591060	     -4.91597824	      2.04870422	    -10.99016382	      6.43243906	    -33.95860775	     49.36200586	     64.72869388	      0.00000000	      0.00000000	     -5.32687633	      2.02970894	    -18.41415629	     39.14973457	     65.70533211	      0.00000000	      0.00000000
      8.98000000	      3.88564312	      2.69247620	     -6.47261226	      0.01487785	      0.98392451	     -0.01983778	     11.17824552	     -8.11015079	      1.73586841	     60.86711290	      1.06233153	     -8.78917737	      0.00000000	     -7.49348014	      5.14115224	      3.61916212	    -14.12373461	     12.14696792	      0.21200458	     -1.28210335	     -7.23500243	     -7.49348014	     -9.09795050	     -4.77843747	      1.77600118	    -10.86499683	      6.50366344	    -33.88748183	     49.45347489	     64.72868461	      0.00000000	      0.00000000	     -4.71413764	      1.79826481	    -18.35099454	     39.40721201	     65.74612923	      0.00000000	      0.00000000
      8.99000000	      3.88055814	      2.62595297	     -6.36368050	      0.02244584	      0.98455549	     -0.02061002	     12.21283614	     -8.11837873	      1.43627047	     60.50931933	      1.05608685	     -8.72864070	      0.00000000	     -7.49348549	      4.46194194	      3.68179456	    -14.20054867	     11.87019425	      0.20717397	     -1.24928288	     -7.24921793	     -7.49348549	     -9.17292264	     -4.68587186	      1.66290238	    -10.88036717	      6.53187381	    -33.87907024	     49.46068711	     64.72660298	      0.00000000	      0.00000000	     -4.55580325	      1.75161209	    -18.33871231	     39.47646924	     65.75218523	      0.00000000	      0.00000000
      9.00000000	      3.89471543	      2.54908717	     -5.97945221	      0.03000097	      0.98536251	     -0.02179129	     13.04967490	     -8.19167612	      0.80079846	     59.86736259	      1.04488259	     -7.96851861	      0.00000000	     -7.49358354	      3.78762583	      3.82266759	    -13.50883630	     11.52055267	      0.20107158	     -0.98885408	     -7.21337467	     -7.49358354	     -9.21055901	     -4.48308654	      1.21979508	    -10.72922924	      6.63861134	    -33.79432146	     49.61264694	     64.72466538	      0.00000000	      0.00000000	     -3.58729378	      1.37948829	    -18.25209069	     39.87011282	     65.81281641	      0.00000000	      0.00000000
      9.01000000	      3.88539284	      2.55599976	     -5.94283993	      0.03745760	      0.98594608	     -0.02246656	     13.96275311	     -8.22673771	      0.55483180	     59.09514643	      1.03140488	     -7.87170228	      0.00000000	     -7.49355742	      3.06420747	      3.97692768	    -13.62276878	     11.08581775	      0.19348402	     -0.94076355	     -7.26729454	     -7.49355742	     -9.22672918	     -4.42674663	      1.10470330	    -10.71514441	      6.67053059	    -33.78235170	     49.58022681	     64.73715316	      0.00000000	      0.00000000	     -3.38239839	      1.31873826	    -18.23568500	     39.87514579	     65.83987972	      0.00000000	      0.00000000
      9.02000000	      4.08596610	      2.34744555	     -5.54995610	      0.04495845	      0.98696996	     -0.02344166	     14.33564915	     -8.11104394	     -0.10678969	     57.85504144	      1.00976096	     -4.52000049	      0.00000000	     -7.49422956	      2.05194176	      3.96867680	    -13.12288637	     10.53207476	      0.18381938	      0.05729513	     -6.45415488	     -7.49422956	     -9.52506802	     -4.12804619	      0.84904763	    -10.77660349	      6.77869261	    -33.62159848	     50.08247645	     64.74668837	      0.00000000	      0.00000000	     -2.40114257	      0.80672502	    -17.42563012	     39.95276416	     66.30859468	      0.00000000	      0.00000000
      9.03000000	      4.02443471	      2.26716017	     -5.36537831	      0.05237699	      0.98740270	     -0.02410039	     15.09063874	     -8.00933609	     -0.48326044	     56.61009661	      0.98803258	     -4.30316489	      0.00000000	     -7.49426565	      1.37922503	      4.03382265	    -12.87554929	     10.08054406	      0.17593868	      0.13744509	     -6.45972134	     -7.49426565	     -9.49782378	     -3.98039763	      0.69380389	    -10.69219661	      6.83549182	    -33.58136234	     50.08834353	     64.75577489	      0.00000000	      0.00000000	     -1.85060682	      0.59028063	    -17.36259423	     40.11777268	     66.37708068	      0.00000000	      0.00000000
